<svg xmlns="http://www.w3.org/2000/svg" id="office-monthly-calendar" width="16" height="16.186" viewBox="0 0 16 16.186">
    <defs>
        <style>
            .cls-1{fill:#0e38b1}
        </style>
    </defs>
    <g id="Group_51">
        <path id="Path_91" d="M18.275 45.333H16.6a.556.556 0 1 0 0 1.113h1.116v12.423H3.949V46.446h1.489a.556.556 0 1 0 0-1.113H3.391a.559.559 0 0 0-.558.556v13.537a.559.559 0 0 0 .558.556h14.884a.559.559 0 0 0 .558-.556V45.889a.559.559 0 0 0-.558-.556z" class="cls-1" transform="translate(-2.833 -43.796)"/>
        <path id="Path_92" d="M206.209 45.333h-1.633a.576.576 0 0 0 0 1.153h1.633a.576.576 0 0 0 0-1.153z" class="cls-1" transform="translate(-197.439 -43.796)"/>
        <path id="Path_93" d="M89.754 351.333h-1.345a.578.578 0 0 0-.576.576v.961a.578.578 0 0 0 .576.576h1.345a.578.578 0 0 0 .576-.576v-.961a.578.578 0 0 0-.576-.576z" class="cls-1" transform="translate(-85.059 -339.853)"/>
        <path id="Path_94" d="M208.85 351.333h-1.441a.578.578 0 0 0-.576.576v.961a.578.578 0 0 0 .576.576h1.441a.578.578 0 0 0 .576-.576v-.961a.578.578 0 0 0-.576-.576z" class="cls-1" transform="translate(-200.176 -339.853)"/>
        <path id="Path_95" d="M90.331 258.409a.578.578 0 0 0-.576-.576h-1.346a.578.578 0 0 0-.576.576v.961a.578.578 0 0 0 .576.576h1.345a.578.578 0 0 0 .576-.576z" class="cls-1" transform="translate(-85.059 -249.408)"/>
        <path id="Path_96" d="M209.427 258.409a.578.578 0 0 0-.576-.576h-1.441a.578.578 0 0 0-.576.576v.961a.578.578 0 0 0 .576.576h1.441a.578.578 0 0 0 .576-.576z" class="cls-1" transform="translate(-200.176 -249.408)"/>
        <path id="Path_97" d="M330.587 257.833h-1.345a.578.578 0 0 0-.576.576v.961a.578.578 0 0 0 .576.576h1.345a.578.578 0 0 0 .576-.576v-.961a.578.578 0 0 0-.576-.576z" class="cls-1" transform="translate(-318.031 -249.408)"/>
        <path id="Path_98" d="M87.833 162.076v.961a.578.578 0 0 0 .576.576h1.345a.578.578 0 0 0 .576-.576v-.961a.578.578 0 0 0-.576-.576h-1.345a.578.578 0 0 0-.576.576z" class="cls-1" transform="translate(-85.059 -156.223)"/>
        <path id="Path_99" d="M209.427 162.076a.578.578 0 0 0-.576-.576h-1.441a.578.578 0 0 0-.576.576v.961a.578.578 0 0 0 .576.576h1.441a.578.578 0 0 0 .576-.576z" class="cls-1" transform="translate(-200.176 -156.223)"/>
        <path id="Path_100" d="M331.164 162.076a.578.578 0 0 0-.576-.576h-1.345a.578.578 0 0 0-.576.576v.961a.578.578 0 0 0 .576.576h1.345a.578.578 0 0 0 .576-.576z" class="cls-1" transform="translate(-318.031 -156.223)"/>
        <path id="Path_101" d="M122.986 3.842a.578.578 0 0 0 .576-.576V.576a.578.578 0 0 0-.576-.576h-.576a.578.578 0 0 0-.576.576v2.69a.578.578 0 0 0 .576.576z" class="cls-1" transform="translate(-117.941)"/>
        <path id="Path_102" d="M318.486 0h-.576a.578.578 0 0 0-.576.576v2.69a.578.578 0 0 0 .576.576h.576a.578.578 0 0 0 .576-.576V.576a.578.578 0 0 0-.576-.576z" class="cls-1" transform="translate(-307.047)"/>
    </g>
</svg>
