<svg xmlns="http://www.w3.org/2000/svg" id="options-gear" width="24" height="24" viewBox="0 0 24 24">
    <defs>
        <style>
            .cls-1{}
        </style>
    </defs>
    <g id="Group_35">
        <path id="Path_59" d="M1.707 15.578l1.117.514a.989.989 0 0 1 .512 1.231L2.9 18.477a2.846 2.846 0 0 0 2.654 3.833 2.819 2.819 0 0 0 1.008-.187l1.148-.436a.831.831 0 0 1 .341-.062.965.965 0 0 1 .884.577l.512 1.122a2.822 2.822 0 0 0 5.151 0l.512-1.122a.974.974 0 0 1 .884-.577.881.881 0 0 1 .341.062l1.148.452a2.838 2.838 0 0 0 1.008.2 2.9 2.9 0 0 0 2.327-1.247 2.859 2.859 0 0 0 .326-2.618l-.434-1.153a.989.989 0 0 1 .512-1.231l1.117-.514a2.846 2.846 0 0 0 0-5.174l-1.116-.512a.989.989 0 0 1-.512-1.231l.434-1.153a2.846 2.846 0 0 0-2.653-3.834 2.819 2.819 0 0 0-1.008.187l-1.148.436a.832.832 0 0 1-.341.062.965.965 0 0 1-.884-.577L14.6 2.659A2.805 2.805 0 0 0 12.023.991 2.886 2.886 0 0 0 9.4 2.674L8.889 3.8a.974.974 0 0 1-.884.577.881.881 0 0 1-.341-.062l-1.148-.441a2.819 2.819 0 0 0-1.008-.187A2.88 2.88 0 0 0 3.18 4.918a2.833 2.833 0 0 0-.326 2.6l.434 1.153a.989.989 0 0 1-.512 1.231l-1.116.518a2.818 2.818 0 0 0 .047 5.158zm.76-3.475l1.117-.514A2.851 2.851 0 0 0 5.058 8l-.435-1.149a.933.933 0 0 1 .109-.888A.945.945 0 0 1 5.88 5.6l1.148.436a2.737 2.737 0 0 0 .993.187A2.848 2.848 0 0 0 10.6 4.56l.512-1.122a.951.951 0 0 1 .884-.577.964.964 0 0 1 .884.577l.512 1.122a2.848 2.848 0 0 0 2.575 1.668 2.737 2.737 0 0 0 .993-.187L18.1 5.6a.992.992 0 0 1 1.148.358.933.933 0 0 1 .109.888L18.927 8a2.866 2.866 0 0 0 1.473 3.588l1.117.514a.957.957 0 0 1 .574.888.97.97 0 0 1-.574.888l-1.117.514a2.851 2.851 0 0 0-1.474 3.584l.434 1.153a.933.933 0 0 1-.109.888.945.945 0 0 1-1.148.358l-1.148-.436a2.737 2.737 0 0 0-.993-.187 2.848 2.848 0 0 0-2.575 1.668l-.512 1.122a.951.951 0 0 1-.884.577.964.964 0 0 1-.884-.577l-.507-1.12a2.848 2.848 0 0 0-2.575-1.668 2.737 2.737 0 0 0-.993.187l-1.148.436a.992.992 0 0 1-1.148-.358.933.933 0 0 1-.109-.888l.434-1.153a2.865 2.865 0 0 0-1.474-3.584L2.47 13.88a.957.957 0 0 1-.574-.888.97.97 0 0 1 .571-.892z" class="cls-1" transform="translate(0 -.991)"/>
        <path id="Path_60" d="M149.179 153.717a4.113 4.113 0 1 0-4.113-4.113 4.125 4.125 0 0 0 4.113 4.113zm0-6.328a2.215 2.215 0 1 1-2.215 2.215 2.221 2.221 0 0 1 2.215-2.215z" class="cls-1" transform="translate(-137.202 -137.604)"/>
    </g>
</svg>
