<svg xmlns="http://www.w3.org/2000/svg" width="16" height="16" viewBox="0 0 16 16">
    <path fill="none" d="M0 0H16V16H0z"/>
    <g>
        <g>
            <path fill="#0e38b1" d="M1.86 97.074A8.568 8.568 0 0 0 8 99.552a8.607 8.607 0 0 0 6.139-2.478 8.956 8.956 0 0 0 1.812-2.5.54.54 0 0 0 0-.451 7.655 7.655 0 0 0-1.765-2.347 8.944 8.944 0 0 0-6.242-2.3 8.747 8.747 0 0 0-6.187 2.314 7.255 7.255 0 0 0-1.718 2.356.532.532 0 0 0 .009.432 8.73 8.73 0 0 0 1.812 2.496zm6.054-6.43a2.741 2.741 0 1 1-2.741 2.741 2.744 2.744 0 0 1 2.741-2.74zm-3.182.544a3.834 3.834 0 0 0-.685 2.2 3.867 3.867 0 1 0 7.03-2.215 7.135 7.135 0 0 1 3.708 3.191 8.5 8.5 0 0 1-1.485 1.95 7.354 7.354 0 0 1-5.31 2.131A7.4 7.4 0 0 1 2.677 96.3a8.532 8.532 0 0 1-1.492-1.962 6.878 6.878 0 0 1 3.548-3.149z" transform="translate(0 3) translate(.002 -89.481)"/>
        </g>
    </g>
</svg>
