<svg id="Component_19_2" data-name="Component 19 – 2" xmlns="http://www.w3.org/2000/svg" width="16" height="16" viewBox="0 0 16 16">
  <defs>
    <style>
      .cls-1, .cls-3 {
        fill: none;
      }

      .cls-2 {
        fill: #0e38b1;
      }

      .cls-3 {
        stroke: #0e38b1;
        stroke-linecap: round;
      }
    </style>
  </defs>
  <rect id="Rectangle_25" data-name="Rectangle 25" class="cls-1" width="16" height="16"/>
  <g id="eye-view" transform="translate(0 3)">
    <g id="Group_86" data-name="Group 86" transform="translate(0 0)">
      <path id="Path_160" data-name="Path 160" class="cls-2" d="M1.86,97.074A8.568,8.568,0,0,0,8,99.552a8.607,8.607,0,0,0,6.139-2.478,8.956,8.956,0,0,0,1.812-2.5.54.54,0,0,0,0-.451,7.655,7.655,0,0,0-1.765-2.347,8.944,8.944,0,0,0-6.242-2.3A8.747,8.747,0,0,0,1.757,91.79,7.255,7.255,0,0,0,.039,94.146a.532.532,0,0,0,.009.432A8.73,8.73,0,0,0,1.86,97.074Zm6.054-6.43a2.741,2.741,0,1,1-2.741,2.741A2.744,2.744,0,0,1,7.914,90.645Zm-3.182.544a3.834,3.834,0,0,0-.685,2.2,3.867,3.867,0,1,0,7.03-2.215,7.135,7.135,0,0,1,3.708,3.191A8.5,8.5,0,0,1,13.3,96.314,7.354,7.354,0,0,1,7.99,98.445,7.4,7.4,0,0,1,2.677,96.3a8.532,8.532,0,0,1-1.492-1.962A6.878,6.878,0,0,1,4.733,91.189Z" transform="translate(0.002 -89.481)"/>
    </g>
  </g>
  <path id="Path_161" data-name="Path 161" class="cls-3" d="M234.231,167.1l-12.347,12.869" transform="translate(-220 -166)"/>
</svg>
