<svg xmlns="http://www.w3.org/2000/svg" width="24" height="24" viewBox="0 0 24 24">
    <defs>
        <style>
            .cls-1{fill:#fff}
        </style>
    </defs>
    <g id="Group_141" transform="translate(-229 -11)">
        <g id="waste-can" transform="translate(234 15)">
            <g id="Group_7">
                <path id="Path_11" d="M21.654 4.812h1.092v10.642a.547.547 0 0 0 .546.546H33.3a.547.547 0 0 0 .546-.546V4.812h1.364a.546.546 0 1 0 0-1.092h-2.6a3.884 3.884 0 0 0-.991-2.511A4.312 4.312 0 0 0 28.33 0a3.952 3.952 0 0 0-3.184 1.219 3.616 3.616 0 0 0-.764 2.5h-2.728a.546.546 0 1 0 0 1.091zm4.312-2.893a2.927 2.927 0 0 1 2.356-.828 3.3 3.3 0 0 1 2.483.855 2.829 2.829 0 0 1 .7 1.774h-6.031a2.577 2.577 0 0 1 .491-1.801zm6.786 2.893v10.1h-8.915v-10.1z" class="cls-1" transform="translate(-21.108)"/>
                <path id="Path_12" d="M174.733 195.152a.627.627 0 0 0 .625-.625v-7.186a.625.625 0 1 0-1.25 0v7.186a.627.627 0 0 0 .625.625z" class="cls-1" transform="translate(-169.253 -181.464)"/>
                <path id="Path_13" d="M282.4 195.152a.627.627 0 0 0 .625-.625v-7.186a.625.625 0 1 0-1.25 0v7.186a.627.627 0 0 0 .625.625z" class="cls-1" transform="translate(-273.504 -181.464)"/>
            </g>
        </g>
        <path id="Rectangle_32" fill="none" d="M0 0H24V24H0z" transform="translate(229 11)"/>
    </g>
</svg>
