<svg xmlns="http://www.w3.org/2000/svg" width="24" height="24" viewBox="0 0 24 24">
    <g>
        <path fill="none" d="M0 0H24V24H0z" transform="translate(3) translate(-3)"/>
        <g>
            <path d="M48.592 23.028a.975.975 0 0 0 .972.972h16.5a.975.975 0 0 0 .972-.972c0-5.38-2.431-10-5.85-11.846a6.1 6.1 0 1 0-6.725 0c-3.438 1.847-5.869 6.466-5.869 11.846zm9.221-21.083a4.149 4.149 0 1 1-4.149 4.149 4.157 4.157 0 0 1 4.149-4.149zm0 10.29c3.792 0 6.9 4.327 7.244 9.82H50.569c.34-5.493 3.452-9.82 7.244-9.82z" transform="translate(3) translate(-48.592)"/>
        </g>
    </g>
</svg>
