<svg xmlns="http://www.w3.org/2000/svg" width="24" height="24" viewBox="0 0 24 24">
    <defs>
        <style>
            .cls-2{}
        </style>
    </defs>
    <g id="Group_94" transform="translate(-330 -609)">
        <path id="Rectangle_10" fill="none" d="M0 0H24V24H0z" transform="translate(330 609)"/>
        <g id="Group_74" transform="translate(15 4)">
            <g id="Group_72" transform="translate(315 609)">
                <path id="Path_75" d="M48.592 15.231a.645.645 0 0 0 .643.643h10.911a.645.645 0 0 0 .643-.643c0-3.559-1.608-6.613-3.869-7.835a4.035 4.035 0 1 0-4.448 0c-2.272 1.222-3.88 4.276-3.88 7.835zm6.1-13.945a2.744 2.744 0 1 1-2.745 2.744 2.749 2.749 0 0 1 2.744-2.744zm0 6.806c2.508 0 4.566 2.862 4.791 6.5H49.9c.225-3.638 2.283-6.5 4.791-6.5z" class="cls-2" transform="translate(-48.592)"/>
            </g>
            <g id="Group_73" transform="translate(326.244 609)">
                <path id="Path_75-2" d="M48.592 15.231a.645.645 0 0 0 .643.643h10.911a.645.645 0 0 0 .643-.643c0-3.559-1.608-6.613-3.869-7.835a4.035 4.035 0 1 0-4.448 0c-2.272 1.222-3.88 4.276-3.88 7.835zm6.1-13.945a2.744 2.744 0 1 1-2.745 2.744 2.749 2.749 0 0 1 2.744-2.744zm0 6.806c2.508 0 4.566 2.862 4.791 6.5H49.9c.225-3.638 2.283-6.5 4.791-6.5z" class="cls-2" transform="translate(-48.592)"/>
            </g>
        </g>
    </g>
</svg>
